<?xml version="1.0" standalone="no"?>
<!DOCTYPE svg PUBLIC "-//W3C//DTD SVG 20010904//EN"
 "http://www.w3.org/TR/2001/REC-SVG-20010904/DTD/svg10.dtd">
<svg version="1.0" xmlns="http://www.w3.org/2000/svg"
 width="1080.000000pt" height="1080.000000pt" viewBox="0 0 1080.000000 1080.000000"
 preserveAspectRatio="xMidYMid meet">
<metadata>
Created by potrace 1.14, written by Peter Selinger 2001-2017
</metadata>
<g transform="translate(0.000000,1080.000000) scale(0.100000,-0.100000)"
fill="#000000" stroke="none">
<path d="M0 5400 l0 -5400 1073 0 1073 0 60 44 c279 205 778 324 1243 295 370
-23 590 38 677 186 25 43 25 49 25 206 -1 174 10 245 55 348 54 123 244 253
409 281 124 21 256 -22 392 -128 102 -79 201 -130 325 -166 63 -18 91 -42 67
-57 -8 -5 -23 -7 -34 -4 -11 4 -49 8 -85 11 -36 3 -102 17 -148 31 -71 22 -83
30 -89 52 -16 69 -69 120 -141 135 -44 10 -134 -10 -177 -40 -20 -13 -48 -24
-64 -24 -15 0 -36 -7 -47 -15 -18 -14 -18 -14 5 -15 13 0 52 5 88 12 48 9 66
9 75 0 16 -16 68 -171 68 -203 0 -28 -62 -128 -102 -166 -14 -14 -49 -28 -83
-35 -54 -10 -60 -10 -69 7 -12 21 -26 34 -75 72 l-34 27 -36 -21 c-59 -34 -76
-73 -77 -183 -1 -117 -6 -131 -45 -149 -17 -7 -51 -29 -75 -47 -30 -23 -60
-37 -92 -41 -26 -3 -56 -10 -67 -16 -69 -35 -141 -125 -119 -147 6 -6 26 -19
45 -29 27 -14 34 -25 34 -47 0 -27 -18 -42 -78 -66 -5 -2 -1 -17 7 -33 9 -16
12 -33 7 -38 -4 -4 -40 -13 -79 -19 -73 -10 -224 -4 -580 24 -158 13 -229 7
-332 -26 -39 -12 150 -14 1534 -15 l1579 -1 -24 28 c-13 15 -50 54 -82 86 -69
71 -68 68 -160 276 -114 254 -176 374 -240 458 -101 134 -186 307 -189 387 -1
36 4 43 81 113 45 42 101 100 125 131 52 68 194 298 236 381 19 38 35 58 42
54 8 -5 9 0 4 17 -4 13 -9 65 -13 114 -4 73 -2 97 11 122 17 35 22 37 116 53
50 9 117 37 285 122 121 61 249 130 285 154 55 36 110 64 125 64 2 0 -3 -12
-11 -27 -7 -16 -14 -33 -14 -39 0 -23 -91 -94 -170 -134 -128 -64 -158 -107
-171 -238 -5 -46 -18 -118 -29 -162 -32 -127 -22 -217 41 -355 26 -59 79 -201
155 -423 9 -24 14 -46 11 -48 -6 -6 -61 75 -89 131 -14 28 -40 90 -58 138 -17
48 -47 114 -65 146 -18 33 -42 85 -53 117 -28 81 -72 253 -72 281 0 37 -17 26
-23 -15 -4 -20 -13 -120 -22 -222 -34 -407 -89 -716 -109 -619 -3 13 -8 56
-11 94 -3 39 -19 135 -35 215 -15 80 -31 195 -34 255 -13 220 -29 273 -34 112
-5 -138 -18 -202 -57 -279 -19 -38 -35 -75 -35 -81 0 -7 -16 -37 -36 -67 -50
-78 -73 -164 -80 -294 l-7 -112 50 -114 c28 -63 58 -135 67 -160 10 -25 34
-70 54 -100 20 -30 48 -84 63 -120 14 -36 41 -93 58 -126 17 -34 31 -64 31
-68 0 -3 15 -25 33 -49 18 -24 51 -78 73 -120 l39 -77 902 0 902 0 5 53 c40
383 54 812 37 1122 -13 222 -18 262 -67 530 -23 123 -28 180 -28 315 l-1 165
104 205 c58 113 114 233 127 268 12 35 24 65 27 68 15 15 37 -198 37 -361 1
-190 14 -297 63 -515 80 -350 82 -365 81 -585 -1 -207 -17 -574 -35 -801 -7
-87 -7 -158 0 -215 5 -46 13 -121 16 -167 l7 -82 124 0 c68 0 124 1 124 3 0 2
-4 28 -10 58 -29 163 -62 471 -70 669 -9 217 -25 362 -110 995 -32 236 -42
324 -59 480 -6 50 -24 185 -41 300 -36 241 -51 540 -31 613 14 48 46 75 88 70
36 -4 53 -38 53 -111 0 -33 9 -82 21 -115 141 -384 215 -791 249 -1367 14
-232 12 -532 -5 -1035 -8 -234 -15 -455 -15 -492 l0 -68 1065 0 1065 0 0 5400
0 5400 -5400 0 -5400 0 0 -5400z m8280 4136 c0 -2 -12 -11 -27 -20 l-28 -17
24 20 c23 21 31 25 31 17z m-549 -2406 c-23 -19 -78 -44 -160 -71 -256 -84
-343 -169 -286 -280 15 -28 15 -30 -7 -38 -30 -11 -61 10 -82 54 -19 39 -20
63 -5 102 22 60 136 152 229 186 25 9 92 21 150 27 61 7 120 19 140 29 52 27
59 24 21 -9z m-515 -150 c-67 -62 -89 -116 -84 -211 3 -65 7 -82 27 -103 25
-26 74 -35 86 -16 3 6 11 10 17 10 19 0 -16 -33 -49 -47 -38 -15 -87 -17 -112
-3 -27 14 -51 83 -51 146 0 79 38 157 98 198 25 17 60 43 76 58 49 42 42 14
-8 -32z m624 -52 c145 -71 262 -220 315 -402 27 -95 82 -195 139 -252 54 -53
152 -107 311 -169 196 -77 308 -150 350 -227 57 -104 54 -230 -11 -431 -28
-85 -35 -122 -32 -159 4 -34 1 -48 -7 -48 -19 0 -27 76 -17 150 16 116 -13
250 -81 373 -90 162 -188 226 -400 263 -139 24 -195 61 -237 157 -12 27 -39
64 -59 83 -48 43 -81 117 -125 276 -19 69 -46 147 -59 174 -33 63 -107 135
-177 171 -48 24 -66 28 -142 28 -102 0 -126 -14 -63 -38 6 -3 8 -7 5 -10 -7
-8 -160 4 -160 13 0 10 74 49 133 71 41 15 72 19 147 16 86 -3 102 -6 170 -39z
m-255 -119 c70 -26 113 -62 136 -114 26 -57 23 -108 -11 -220 -33 -107 -38
-171 -16 -214 16 -30 81 -92 118 -112 24 -13 58 -47 58 -59 0 -31 -124 -111
-223 -144 -26 -8 -38 -48 -26 -90 5 -19 14 -38 19 -41 19 -12 9 -24 -27 -34
-52 -15 -59 -14 -81 10 -25 26 -35 75 -21 101 l11 21 -29 -21 c-48 -34 -56
-48 -49 -87 3 -19 9 -50 12 -69 4 -21 -2 -66 -15 -115 -20 -77 -20 -85 -6
-133 20 -70 19 -128 -6 -217 -17 -62 -20 -91 -15 -156 4 -45 4 -84 1 -87 -12
-11 -101 13 -116 32 -15 17 -15 26 -3 86 8 36 16 69 19 73 13 22 45 302 45
399 0 99 -2 113 -17 118 -35 11 -68 33 -87 58 -19 25 -19 26 5 128 23 98 24
119 24 424 l0 320 30 60 c24 47 39 63 75 82 56 28 122 29 195 1z m485 -1138
c0 -38 -21 -84 -68 -146 -42 -55 -52 -77 -62 -134 -19 -113 14 -161 137 -197
29 -8 55 -20 59 -25 21 -34 -40 -95 -70 -70 -12 10 -23 10 -50 1 -30 -10 -46
-7 -128 20 -110 37 -151 62 -172 107 -20 41 -20 113 -2 173 13 44 13 47 -20
109 -19 35 -34 70 -34 77 0 19 95 73 152 86 28 7 79 29 112 49 l61 37 42 -35
c24 -20 43 -43 43 -52z m-967 28 c66 -14 75 -29 18 -29 -22 0 -79 -14 -126
-31 -74 -27 -97 -42 -160 -100 -70 -65 -112 -88 -133 -75 -6 3 -8 -12 -5 -37
4 -31 1 -46 -11 -56 -12 -10 -16 -33 -16 -100 0 -72 -4 -92 -23 -122 -24 -39
-73 -84 -154 -142 -120 -87 -146 -140 -148 -297 -1 -102 -5 -126 -35 -215 -30
-88 -34 -113 -35 -206 0 -110 -2 -116 -57 -182 l-23 -29 -28 22 c-51 40 -67
91 -67 214 -1 61 -7 181 -14 266 -14 154 -24 194 -90 370 -16 41 -16 48 -2 95
18 55 46 196 46 226 0 35 -18 11 -34 -45 -9 -30 -23 -57 -32 -60 -8 -3 -32 1
-52 9 -134 57 -291 26 -430 -84 -29 -23 -52 -37 -52 -32 0 4 7 14 15 21 8 7
12 17 8 23 -3 5 -2 7 4 4 10 -6 80 59 75 70 -1 4 4 8 11 9 8 1 41 23 74 48 32
26 74 51 92 56 18 5 84 6 146 3 157 -8 165 -4 244 129 34 58 113 123 168 138
65 19 91 16 222 -20 86 -25 118 -30 135 -22 11 5 37 16 55 23 19 7 65 41 102
76 36 35 81 69 100 78 41 17 135 19 212 4z m2107 -183 c0 -13 -9 -60 -20 -105
-16 -65 -19 -89 -10 -119 21 -77 34 -78 77 -4 116 199 204 256 175 112 -12
-58 -8 -125 8 -135 4 -3 10 12 14 33 10 61 100 182 135 182 10 0 24 -7 31 -15
10 -12 9 -16 -4 -21 -9 -4 -28 -26 -43 -51 -24 -41 -25 -49 -19 -124 8 -83 4
-90 -35 -66 -17 10 -22 9 -30 -5 -9 -16 -12 -16 -44 4 -39 22 -98 20 -165 -8
-68 -29 -80 -49 -80 -134 0 -89 9 -105 83 -155 87 -58 134 -151 125 -246 -7
-72 -45 -137 -130 -220 -43 -42 -82 -89 -88 -104 -14 -37 0 -78 39 -111 36
-30 55 -83 47 -128 -10 -52 -78 -139 -128 -164 -24 -11 -74 -25 -113 -29 -66
-8 -70 -9 -76 -38 -4 -16 -13 -45 -21 -63 -12 -32 -12 -35 13 -55 14 -12 35
-27 45 -33 17 -11 18 -14 5 -35 -36 -59 -46 -88 -49 -149 -3 -54 1 -73 21
-113 13 -26 21 -50 16 -53 -15 -9 -96 35 -124 68 -16 18 -41 62 -57 98 -26 58
-28 71 -23 130 8 71 31 154 52 185 7 11 13 30 13 42 0 15 20 44 53 78 51 53
55 55 105 55 65 0 112 19 141 56 26 33 25 76 -2 135 -9 19 -23 58 -33 87 -20
65 -10 96 47 141 21 17 51 53 66 79 25 42 28 56 28 142 0 106 -14 154 -70 230
-56 78 -85 144 -102 236 -24 135 -21 230 9 295 43 94 118 154 118 95z m-464
-238 c-9 -12 -16 -32 -16 -45 0 -12 -4 -24 -9 -27 -5 -4 -12 -30 -16 -59 -11
-82 -27 -109 -127 -212 -152 -159 -187 -219 -189 -330 l0 -50 -16 40 c-25 63
-22 199 5 255 35 71 78 117 153 161 97 58 159 137 159 206 0 30 37 82 58 83
10 0 9 -5 -2 -22z m-1042 -201 c16 -12 16 -14 2 -26 -35 -29 -10 -94 47 -123
l40 -20 -29 -19 c-36 -23 -90 -24 -144 -3 -61 25 -68 50 -39 141 18 56 80 81
123 50z m442 -17 c47 -23 67 -56 95 -160 9 -36 23 -79 30 -97 7 -18 10 -35 7
-38 -18 -18 -49 23 -88 115 -48 114 -85 155 -132 148 -38 -6 -44 6 -16 31 27
26 51 26 104 1z m-271 -250 c-9 -10 -20 -39 -22 -64 -5 -39 -3 -46 21 -61 15
-10 48 -22 74 -26 33 -6 55 -18 75 -39 26 -29 27 -35 25 -119 -3 -97 5 -117
64 -147 19 -10 28 -22 28 -38 0 -44 -10 -56 -47 -56 -28 0 -43 8 -69 36 -19
19 -34 43 -34 51 0 9 -2 14 -5 11 -9 -9 15 -110 36 -154 22 -43 57 -76 97 -88
22 -7 31 -26 12 -26 -5 0 -32 -20 -60 -45 -28 -25 -59 -45 -70 -45 -27 0 -77
46 -103 94 -33 62 -31 178 6 269 47 118 34 170 -63 236 -37 26 -62 53 -79 85
-23 45 -23 49 -9 80 13 27 26 36 70 49 70 21 74 20 53 -3z m381 -326 c11 -27
11 -40 -3 -88 -22 -76 -7 -146 43 -205 34 -40 35 -41 12 -41 -67 0 -147 110
-156 215 -4 55 21 164 41 177 15 9 47 -20 63 -58z m-891 -105 c12 -122 23
-143 96 -193 70 -47 99 -89 99 -144 0 -24 5 -75 11 -114 l11 -70 -46 -67 c-41
-60 -105 -196 -106 -228 0 -6 49 10 113 38 61 27 120 49 129 49 39 0 51 -81
19 -121 -10 -14 -45 -35 -77 -48 -33 -13 -93 -39 -134 -58 -41 -19 -92 -42
-112 -51 -44 -20 -46 -24 -14 -42 38 -20 194 -7 291 25 44 14 107 28 140 32
75 7 87 -4 83 -74 -3 -43 -6 -48 -28 -51 -14 -2 -60 -14 -103 -28 -43 -13
-127 -33 -187 -44 -102 -18 -151 -35 -207 -71 -34 -21 -28 -32 30 -54 50 -19
52 -21 55 -62 2 -22 -4 -58 -13 -79 -19 -46 -13 -53 51 -62 47 -7 49 -9 52
-40 7 -74 -85 -303 -150 -373 -20 -22 -50 -41 -73 -48 -22 -6 -66 -17 -97 -26
-33 -9 -73 -29 -93 -46 -71 -63 -254 -390 -295 -529 -28 -95 -50 -150 -60
-150 -4 0 -13 35 -20 77 -7 42 -25 122 -40 178 -15 55 -31 118 -34 140 -4 22
-25 77 -48 122 l-41 82 16 43 c10 24 47 86 85 139 37 52 78 118 91 147 26 56
40 66 42 30 2 -45 60 209 70 307 5 55 16 126 23 157 7 32 9 55 5 52 -5 -3 -9
-11 -9 -17 0 -7 -12 -29 -26 -50 -33 -49 -54 -36 -54 32 0 58 -59 238 -99 302
-43 70 -71 153 -71 212 0 68 33 135 107 218 101 114 108 176 38 331 -45 97
-64 158 -51 158 4 0 46 -33 93 -74 47 -41 115 -91 150 -112 68 -40 103 -75
103 -105 0 -10 18 -39 40 -64 61 -70 66 -116 14 -135 -36 -14 -54 -1 -83 61
-28 56 -42 63 -52 26 -3 -13 -31 -77 -62 -143 -31 -65 -62 -144 -68 -174 -16
-74 -6 -202 21 -272 21 -58 40 -75 40 -39 0 30 39 124 65 157 21 27 28 29 92
30 37 1 85 4 106 9 35 7 37 9 37 46 0 22 12 67 26 102 24 55 26 71 22 162 -3
88 -7 108 -32 155 -127 241 -134 266 -104 354 25 75 47 107 111 157 35 28 58
39 76 37 25 -3 26 -5 36 -109z m-1220 -279 c3 -5 1 -10 -4 -10 -6 0 -11 5 -11
10 0 6 2 10 4 10 3 0 8 -4 11 -10z m3410 -326 c39 -8 102 -19 142 -24 57 -7
97 -22 209 -76 145 -71 204 -113 204 -145 0 -11 -10 -23 -24 -29 -20 -7 -37
-33 -41 -60 -3 -29 -20 -26 -73 14 -83 64 -341 159 -487 179 -65 9 -114 21
-123 30 -26 27 -7 64 51 97 61 35 53 34 142 14z m125 -439 c25 -9 95 -20 156
-25 106 -7 204 -32 204 -51 0 -5 -18 -9 -39 -9 -34 0 -42 -5 -60 -34 -17 -27
-20 -43 -15 -77 7 -41 6 -42 -17 -36 -13 4 -30 7 -38 7 -11 0 -11 3 -1 15 8
10 9 19 4 25 -9 9 -115 24 -244 35 -41 4 -89 12 -107 18 -27 9 -44 7 -113 -17
-44 -16 -108 -31 -143 -33 -54 -5 -64 -3 -81 15 -36 41 1 102 62 102 43 0 156
28 262 64 80 27 100 27 170 1z m-3550 -335 c8 -5 11 -10 5 -10 -5 0 -17 5 -25
10 -8 5 -10 10 -5 10 6 0 17 -5 25 -10z m3770 -30 l55 0 2 -59 2 -58 -53 -13
c-41 -10 -71 -10 -136 -1 -138 18 -197 15 -288 -19 -46 -16 -90 -30 -99 -30
-23 0 -93 50 -93 66 0 20 35 39 125 69 132 45 199 55 320 50 61 -3 135 -5 165
-5z m30 -305 c0 -8 -25 -31 -55 -50 -59 -38 -67 -56 -35 -78 19 -13 14 -15
-49 -21 -39 -3 -102 -13 -141 -21 -135 -28 -178 -14 -183 60 -2 39 -1 40 33
42 70 5 176 27 220 46 45 19 116 33 178 36 22 1 32 -3 32 -14z"/>
<path d="M8863 3584 c-7 -19 4 -100 17 -122 7 -12 8 -4 3 28 -4 25 -8 60 -7
78 1 35 -3 40 -13 16z"/>
</g>
</svg>
