<?xml version="1.0" standalone="no"?><!DOCTYPE svg PUBLIC "-//W3C//DTD SVG 1.1//EN" "http://www.w3.org/Graphics/SVG/1.1/DTD/svg11.dtd"><svg t="1732194489595" class="icon" viewBox="0 0 1024 1024" version="1.1" xmlns="http://www.w3.org/2000/svg" p-id="4331" width="32" height="32" xmlns:xlink="http://www.w3.org/1999/xlink"><path d="M718.3 202.9H158.5c-36.4 0-66 29.6-66 66V896c0 36.4 29.6 66 66 66h559.8c36.4 0 66-29.6 66-66V268.9c0-36.4-29.6-66-66-66z m-4 689H162.5v-619h551.7v619z" p-id="4332" fill="#d81e06"></path><path d="M872.1 65.1H414.4v70H868v609.1h70V131.1c0-36.4-29.6-66-65.9-66z" p-id="4333" fill="#d81e06"></path><path d="M256.6 726.2l-32.5 3.9 24.1 22.1c13.9 12.7 18.1 21.2 19.2 26l3.5 15.4 15.2-4.3c61.8-17.4 116.2-44.2 162-80 32.5 24.1 63.6 41.8 92.6 52.5 31.4 11.6 56.3 19.5 76.2 24.2l11.6 2.7 5.3-10.6c6.8-13.7 14.5-23.9 22.8-30.4l30.2-23.5-38.1-3.3c-24.7-2.2-54.3-9-87.8-20.4-27.1-9.2-50-20.7-68.2-34.4 14-18 27.3-39.8 39.7-64.9 13.4-27.4 23.4-57.3 29.5-88.8 29.4 0.1 56.8 0.7 81.6 1.7l15.6 0.6V448l-15.6 0.6c-27.7 1.1-51.9 1.7-72.1 1.7h-78.7l-6.4-11.1c-16.8-29.2-31.8-53.9-44.4-73.4l-9-14-13 10.4c-12 9.6-19.4 13-23.5 14.2l-19.5 5.6 11 17c9.1 14.1 19.3 31.3 30.5 51.3h-87.2c-21.3 0-45-0.6-70.4-1.7l-15.7-0.7v68.3l17-2.3c16.3-2.2 36.1-3.3 58.9-3.3h5c16.1 65.5 41.2 118.5 74.9 157.8-19.7 15.4-42.8 27.9-68.9 37.2-31.9 11.6-57.3 18.5-75.4 20.6z m134.7-213.7h104.4c-9 41-25.9 78.7-50.6 112.4-26.7-31-44.8-68.7-53.8-112.4z" p-id="4334" fill="#d81e06"></path></svg>